<svg width="68" height="83" viewBox="0 0 68 83" fill="none" xmlns="http://www.w3.org/2000/svg">
  <g id="Group 561" filter="url(#filter0_d_1553_32276)">
    <rect id="Rectangle 134" x="10" width="48" height="48" rx="4" fill="white"/>
    <rect id="Rectangle 135" x="23" y="42.3137" width="16" height="16" rx="2" transform="rotate(-45 23 42.3137)" fill="white"/>
    <g id="BERN-Logo-ohne-Claim-RGB-schwarz" transform="translate(23, 12)" fill="#111111">
        <path d="M20.7483871,2.55572139 C20.7483871,2.58130259 20.7483871,2.6076832 20.746781,2.6340638 C20.717871,4.21290326 19.777493,5.67263028 18.6732917,6.50961504 C16.6600315,8.04448682 13.1667401,8.2371452 8.84710458,7.05161664 C8.32511851,6.91012065 7.74129716,6.73504933 7.11170165,6.55438214 C5.42207287,6.05235116 3.91955603,5.62306671 2.63225806,5.36325768 C2.63225806,5.36325768 17.2558987,0.17107425 17.2631262,0.167876601 C17.5570445,0.068749465 17.8581904,0 18.1810187,0 C19.5992147,0 20.7483871,1.14395912 20.7483871,2.55572139 Z" id="Path"></path>
        <path d="M19.0451613,20.5951723 L8.94391144,23.8473781 C8.61474974,23.9488597 8.28077105,24 7.94598952,24 C7.27160946,24 6.59722941,23.7914433 6.03524602,23.3791244 L1.57952065,20.5831863 C0.638599902,19.9910771 0.0774193548,18.975462 0.0774193548,17.8639587 L0.0774193548,14.4 C4.00086619,14.5973697 11.6141353,15.6641252 19.0451613,20.5951723 Z" id="Path"></path>
        <path d="M20.7483871,7.92514437 L20.7483871,17.6926608 L20.7483871,18.8129032 C12.6337479,13.2897538 4.23561036,12.1011057 0,11.930494 L0,7.50988207 C1.30505628,7.49459141 4.592995,8.33960189 6.41927068,8.87960382 C7.0601537,9.07274908 7.66730604,9.25462752 8.19976901,9.40270555 C10.2918746,9.97650791 12.2201455,10.2662258 13.9436229,10.2662258 C16.4669994,10.2662258 18.5647268,9.65298961 20.1468565,8.44261269 C20.3572718,8.27763445 20.5612621,8.10702281 20.7483871,7.92514437 Z" id="Path"></path>
    </g>
  </g>
  <defs>
    <filter id="filter0_d_1553_32276" x="0" y="0" width="68" height="82.799" filterUnits="userSpaceOnUse" color-interpolation-filters="sRGB">
      <feFlood flood-opacity="0" result="BackgroundImageFix"/>
      <feColorMatrix in="SourceAlpha" type="matrix" values="0 0 0 0 0 0 0 0 0 0 0 0 0 0 0 0 0 0 127 0" result="hardAlpha"/>
      <feOffset dy="20"/>
      <feGaussianBlur stdDeviation="5"/>
      <feComposite in2="hardAlpha" operator="out"/>
      <feColorMatrix type="matrix" values="0 0 0 0 0 0 0 0 0 0 0 0 0 0 0 0 0 0 0.25 0"/>
      <feBlend mode="normal" in2="BackgroundImageFix" result="effect1_dropShadow_1553_32276"/>
      <feBlend mode="normal" in="SourceGraphic" in2="effect1_dropShadow_1553_32276" result="shape"/>
    </filter>
  </defs>
</svg>
